<?xml version="1.0" standalone="no"?>
<!DOCTYPE svg PUBLIC "-//W3C//DTD SVG 20010904//EN"
 "http://www.w3.org/TR/2001/REC-SVG-20010904/DTD/svg10.dtd">
<svg version="1.0" xmlns="http://www.w3.org/2000/svg"
 width="415.000000pt" height="415.000000pt" viewBox="0 0 415.000000 415.000000"
 preserveAspectRatio="xMidYMid meet">
<metadata>
Created by potrace 1.14, written by Peter Selinger 2001-2017
</metadata>
<g transform="translate(0.000000,415.000000) scale(0.100000,-0.100000)"
fill="#000000" stroke="none">
<path d="M1897 4130 c-114 -43 -237 -135 -294 -220 -59 -88 -201 -363 -351
-680 -22 -47 -99 -206 -171 -354 -72 -148 -131 -270 -131 -271 0 -2 -68 -141
-150 -310 -83 -169 -150 -308 -150 -310 0 -6 -280 -588 -309 -645 -47 -88
-181 -393 -181 -411 0 -11 14 -28 33 -40 31 -20 41 -20 307 -15 306 7 452 15
462 24 11 12 142 276 513 1037 56 116 146 300 200 410 122 250 279 590 299
647 8 24 35 88 61 143 26 55 65 143 87 195 21 52 48 114 59 137 55 122 153
374 169 438 19 75 20 140 2 186 -16 42 -59 51 -242 54 -139 2 -173 0 -213 -15z"/>
<path d="M2480 3921 c0 -52 -140 -407 -295 -746 -8 -16 -23 -59 -35 -95 l-20
-65 490 -980 c269 -539 515 -1027 545 -1085 226 -422 331 -585 476 -734 l57
-58 32 18 c50 29 147 121 180 171 78 115 109 209 114 345 8 195 23 159 -539
1293 -369 744 -631 1276 -742 1505 -86 177 -241 450 -255 450 -4 0 -8 -9 -8
-19z"/>
<path d="M3027 764 c-1 -1 -573 -5 -1272 -8 -1472 -7 -1603 -10 -1622 -34 -20
-26 -13 -88 23 -200 45 -138 85 -210 158 -283 100 -101 218 -170 362 -211 l79
-23 1215 1 c1354 0 1520 2 1546 21 16 12 15 16 -8 60 -99 189 -329 595 -369
651 -12 17 -28 23 -63 25 -26 1 -48 2 -49 1z"/>
</g>
</svg>
